<svg width="289" height="73" viewBox="0 0 289 73" fill="none" xmlns="http://www.w3.org/2000/svg">
<path fill-rule="evenodd" clip-rule="evenodd" d="M0 70.8965V62.9593C1.59294 63.9224 3.18387 64.6418 4.77681 65.1071C6.35768 65.5826 7.86614 65.8163 9.27002 65.8163C10.9977 65.8163 12.3493 65.5826 13.3449 65.1071C14.3405 64.6316 14.8332 63.9123 14.8332 62.9369C14.8332 62.3131 14.614 61.805 14.1635 61.3925C13.713 60.98 13.1257 60.6102 12.4237 60.3034C11.7117 59.9965 10.9474 59.7222 10.1087 59.4682C9.25997 59.2243 8.45344 58.9378 7.6791 58.631C6.4321 58.1555 5.33393 57.6475 4.38058 57.0968C3.42723 56.5562 2.63076 55.9222 1.98313 55.1927C1.34354 54.4734 0.852787 53.6382 0.506845 52.6852C0.17096 51.7321 0.00402343 50.6104 0.00402343 49.3099C0.00402343 47.5319 0.392201 46.0078 1.15649 44.7276C1.92078 43.4475 2.94855 42.3989 4.22571 41.5841C5.51495 40.7692 6.98118 40.1657 8.6244 39.7857C10.2696 39.4057 11.9873 39.2147 13.7673 39.2147C15.1611 39.2147 16.575 39.3203 18.0091 39.5418C19.4431 39.7532 20.8591 40.0702 22.2509 40.4827V48.0379C21.026 47.3185 19.7046 46.778 18.3027 46.4183C16.8988 46.0586 15.5171 45.8778 14.1655 45.8778C13.5259 45.8778 12.9286 45.9306 12.3634 46.0464C11.8083 46.1623 11.3054 46.3208 10.875 46.5443C10.4466 46.7556 10.1107 47.0422 9.85933 47.3795C9.61798 47.7188 9.49328 48.109 9.49328 48.5438C9.49328 49.1149 9.68234 49.6127 10.0484 50.0252C10.4144 50.4377 10.8972 50.7974 11.4945 51.0941C12.0818 51.3908 12.7415 51.6651 13.4736 51.8988C14.1957 52.1426 14.9197 52.3865 15.6317 52.6283C16.921 53.0835 18.0935 53.5813 19.1294 54.1096C20.1772 54.6502 21.0662 55.2842 21.8205 56.0035C22.5646 56.7229 23.1399 57.5702 23.5381 58.5436C23.9363 59.5169 24.1355 60.6712 24.1355 62.0143C24.1355 63.8879 23.7272 65.4953 22.9206 66.8283C22.1141 68.1613 21.0361 69.2403 19.6945 70.0775C18.355 70.9127 16.8144 71.5264 15.0645 71.9084C13.3147 72.2884 11.4925 72.4794 9.61798 72.4794C6.15052 72.4794 2.94654 71.9511 0.00201018 70.8924L0 70.8965ZM48.7033 71.3415C47.2693 72.1035 45.1112 72.4835 42.231 72.4835C35.4027 72.4835 31.9875 68.8969 31.9875 61.7319V47.2128H26.8969V39.9747H31.9875V33.1185L41.6658 30.3244V39.9747H48.7033V47.2128H41.6658V60.0392C41.6658 63.3413 42.9651 64.9913 45.5516 64.9913C46.5673 64.9913 47.6253 64.6946 48.7053 64.0911V71.3394L48.7033 71.3415ZM74.6691 48.8121C73.5065 48.1659 72.1449 47.8489 70.5841 47.8489C68.4783 47.8489 66.825 48.6312 65.6404 50.1878C64.4577 51.7545 63.8604 53.8699 63.8604 56.5583V71.7215H54.1821V39.9747H63.8604V45.8575H63.9851C65.5137 41.5515 68.2792 39.4016 72.2696 39.4016C73.2953 39.4016 74.0918 39.5276 74.6691 39.7715V48.808V48.8121ZM139.336 57.5133C139.336 65.8935 131.142 72.4855 120.681 72.4855C117.634 72.4855 115.235 71.6178 113.485 69.8723C111.735 68.1268 110.866 65.798 110.866 62.8881C110.866 56.7391 114.48 53.1851 121.697 52.232L130.223 51.09C130.223 47.6193 128.358 45.8839 124.629 45.8839C120.89 45.8839 117.328 47.0056 113.945 49.249V41.8848C115.297 41.1858 117.139 40.5619 119.487 40.0234C121.834 39.4829 123.97 39.2187 125.886 39.2187C134.853 39.2187 139.334 43.738 139.334 52.7644V57.5174L139.336 57.5133ZM130.223 58.824V56.6761L124.515 57.4158C121.361 57.8385 119.79 59.2792 119.79 61.7441C119.79 62.8556 120.178 63.7761 120.943 64.4955C121.707 65.2047 122.745 65.5643 124.054 65.5643C125.876 65.5643 127.365 64.9303 128.505 63.6481C129.648 62.3781 130.223 60.7687 130.223 58.822V58.824ZM196.911 71.7235H187.233V53.6179C187.233 49.0153 185.557 46.7069 182.205 46.7069C180.602 46.7069 179.304 47.3957 178.309 48.7816C177.303 50.1675 176.8 51.8927 176.8 53.9572V71.7235H167.122V53.437C167.122 48.9503 165.467 46.7069 162.168 46.7069C160.503 46.7069 159.183 47.3632 158.188 48.6861C157.192 50.009 156.689 51.8073 156.689 54.0832V71.7235H147.011V39.9767H156.689V44.939H156.814C157.81 43.2463 159.224 41.8706 161.036 40.8119C162.848 39.743 164.827 39.2147 166.975 39.2147C171.416 39.2147 174.453 41.1837 176.098 45.13C178.486 41.1837 182.005 39.2147 186.656 39.2147C193.496 39.2147 196.909 43.4678 196.909 51.9882V71.7235H196.911ZM209.48 34.9616C207.846 34.9616 206.495 34.4739 205.457 33.4904C204.409 32.5069 203.886 31.2998 203.886 29.8713C203.886 28.4001 204.409 27.193 205.457 26.2624C206.495 25.3317 207.844 24.8663 209.48 24.8663C211.135 24.8663 212.486 25.3317 213.522 26.2624C214.558 27.193 215.073 28.4001 215.073 29.8713C215.073 31.3527 214.56 32.58 213.522 33.5331C212.484 34.4861 211.135 34.9616 209.48 34.9616ZM214.256 71.7235H204.578V39.9767H214.256V71.7235ZM252.791 39.9767L242.422 55.3533L252.728 71.7235H241.564L237.018 63.1625C236.652 62.4858 236.212 61.5226 235.699 60.283H235.574C235.27 61.1507 234.852 62.0814 234.317 63.0771L229.749 71.7235H218.605L229.224 55.9141L219.232 39.9767H230.471L234.965 48.8771C235.552 50.0516 235.97 51.0473 236.222 51.85H236.346C236.67 50.8766 237.111 49.8708 237.666 48.8121L242.231 39.9767H252.789H252.791ZM77.3099 53.9003C77.3099 45.5201 85.5038 38.9282 95.9646 38.9282C99.0117 38.9282 101.411 39.7958 103.161 41.5414C104.911 43.2869 105.78 45.6157 105.78 48.5256C105.78 54.6746 102.165 58.2286 94.9489 59.1817L86.423 60.3237C86.423 63.7944 88.2875 65.5298 92.0164 65.5298C95.7554 65.5298 99.3174 64.4081 102.7 62.1647V69.5289C101.349 70.2279 99.5064 70.8518 97.1593 71.3902C94.8121 71.9308 92.6761 72.1949 90.7594 72.1949C81.793 72.1949 77.3119 67.6756 77.3119 58.6493V53.8963L77.3099 53.9003ZM86.423 52.5897V54.7375L92.131 53.9979C95.2847 53.5752 96.8556 52.1345 96.8556 49.6696C96.8556 48.5581 96.4674 47.6376 95.7031 46.9182C94.9388 46.209 93.901 45.8493 92.5916 45.8493C90.7694 45.8493 89.2811 46.4833 88.1407 47.7656C86.9982 49.0356 86.423 50.645 86.423 52.5917V52.5897Z" fill="#331A80"/>
<path fill-rule="evenodd" clip-rule="evenodd" d="M251.482 0H272.888C281.564 0 288.664 7.17316 288.664 15.9394C288.664 24.7057 281.564 31.8789 272.888 31.8789H272.242V41.6958L258.34 31.8789H251.482C242.805 31.8789 235.705 24.7057 235.705 15.9394C235.705 7.17316 242.805 0 251.482 0ZM243.98 16.2951V17.6464H241.305V16.2951C241.305 14.1086 241.546 11.1093 243.69 8.56512C245.77 6.09617 249.591 4.17994 256.633 4.17994H257.97V6.88257H256.633C250.516 6.88257 247.34 8.3802 245.715 10.3066C244.155 12.1598 243.978 14.5434 243.978 16.2951H243.98ZM249.601 16.2951V17.6464H246.926V16.2951C246.926 14.4886 247.318 12.7857 248.909 11.473C250.329 10.3025 252.692 9.56082 256.631 9.56082H257.968V12.2635H256.631C253.376 12.2635 251.554 12.7674 250.591 13.5619C249.796 14.2163 249.601 15.2079 249.601 16.293V16.2951Z" fill="#E3F429"/>
</svg>
